<svg width="18" height="19" viewBox="0 0 18 19" fill="none" xmlns="http://www.w3.org/2000/svg">
<path d="M14.4957 1.50431L1.06066 14.9393C0.474874 15.5251 0.474874 16.4749 1.06066 17.0607C1.64645 17.6464 2.59619 17.6464 3.18198 17.0607L16.617 3.62563C17.2028 3.03984 17.2028 2.0901 16.617 1.50431C16.0312 0.918523 15.0815 0.918524 14.4957 1.50431Z" fill="#056839"/>
<path d="M16.617 14.4957L3.182 1.06066C2.59621 0.474874 1.64646 0.474874 1.06068 1.06066C0.474891 1.64645 0.474891 2.59619 1.06068 3.18198L14.4957 16.617C15.0815 17.2028 16.0312 17.2028 16.617 16.617C17.2028 16.0312 17.2028 15.0815 16.617 14.4957Z" fill="#056839"/>
</svg>
